<svg viewBox="0 0 15 13" xmlns="http://www.w3.org/2000/svg">
<path d="M5.81948 12.0232C5.38166 12.0232 5.45606 11.8651 5.30506 11.4664L4.01758 7.41344L13.928 1.78983" fill="#fff"/>
<path d="M5.81934 12.0232C6.15719 12.0232 6.30647 11.8754 6.49505 11.7L8.29695 10.0241L6.0493 8.72772"/>
<path d="M6.04921 8.72806L11.4955 12.5768C12.1169 12.9048 12.5655 12.735 12.7203 12.0249L14.9372 2.03246C15.1642 1.16206 14.5903 0.76729 13.9958 1.02547L0.97816 5.82666C0.0895861 6.16756 0.0947663 6.64173 0.816192 6.85301L4.15681 7.85032L11.8907 3.18335C12.2558 2.97158 12.5909 3.08543 12.3158 3.31891" />
</svg>
