<svg  viewBox="0 0 18 14" xmlns="http://www.w3.org/2000/svg">
<path fill-rule="evenodd" clip-rule="evenodd" d="M17.0325 1.84041C16.425 2.11761 15.7724 2.30417 15.0874 2.38898C15.7865 1.95807 16.3236 1.27594 16.5764 0.46342C15.922 0.862259 15.1971 1.15191 14.4255 1.308C13.8079 0.631966 12.9273 0.210602 11.9532 0.210602C10.0829 0.210602 8.56607 1.76885 8.56607 3.69017C8.56607 3.96313 8.59573 4.22867 8.65378 4.48334C5.83828 4.33759 3.34216 2.95159 1.67179 0.847419C1.38029 1.36154 1.21325 1.95887 1.21325 2.59648C1.21325 3.80359 1.81123 4.86853 2.7198 5.49303C2.16516 5.47448 1.64252 5.31812 1.18591 5.05709V5.10081C1.18591 6.7876 2.35451 8.19347 3.90234 8.51347C3.61857 8.59297 3.31933 8.63537 3.01157 8.63537C2.79332 8.63537 2.58076 8.61417 2.37438 8.57309C2.80519 9.95591 4.05635 10.9619 5.53839 10.99C4.37907 11.9228 2.91844 12.4793 1.33089 12.4793C1.05744 12.4793 0.788374 12.4634 0.523438 12.4308C2.02225 13.4183 3.80302 13.9944 5.71575 13.9944C11.9457 13.9944 15.3529 8.69155 15.3529 4.09365C15.3529 3.94259 15.3495 3.79286 15.3431 3.64313C16.005 3.15286 16.5795 2.53937 17.0336 1.84107" fill="#6188FF"/>
</svg>
