<svg width="117" height="25" viewBox="0 0 117 25" fill="none" xmlns="http://www.w3.org/2000/svg">
<path fill-rule="evenodd" clip-rule="evenodd" d="M81.923 16.4009C80.229 15.9764 80.229 15.9587 80.229 15.0567C80.229 14.4491 80.2909 14.1591 81.6862 14.1591C82.6443 14.1591 84.0542 14.3182 84.9613 14.4721C85.0852 14.4898 85.2127 14.4633 85.3147 14.3837C85.4167 14.3129 85.4823 14.198 85.4969 14.0742L85.7555 12.0534C85.7737 11.8235 85.628 11.6112 85.3912 11.5581C84.3347 11.3229 82.8775 11.169 81.6753 11.169C77.4675 11.169 76.6114 12.7078 76.6114 15.0195C76.6114 17.5603 77.0941 18.4155 80.3128 19.176C82.433 19.6713 82.4331 20.0383 82.4331 20.6485C82.4331 21.4497 82.3602 21.7274 80.9758 21.7274C79.8574 21.7274 78.5641 21.5594 77.4275 21.264C77.3 21.234 77.1724 21.2534 77.0632 21.3171C76.9539 21.3861 76.8755 21.494 76.8519 21.6178L76.5039 23.5466C76.462 23.7676 76.595 23.9843 76.8136 24.0533C78.0559 24.4424 79.8374 24.7077 81.1452 24.7077C85.2145 24.7077 86.0452 23.0451 86.0452 20.5689C86.0452 17.8274 85.5461 17.3145 81.9175 16.3823L81.923 16.4V16.4009ZM71.3708 16.4009C69.6768 15.9764 69.6768 15.9587 69.6768 15.0567C69.6768 14.4491 69.7387 14.1591 71.134 14.1591C72.0904 14.1591 73.502 14.3182 74.4092 14.4721C74.533 14.4898 74.6605 14.4633 74.7626 14.3837C74.8646 14.3129 74.9301 14.198 74.9447 14.0742L75.2034 12.0534C75.2325 11.8235 75.0795 11.6112 74.8482 11.5581C73.8099 11.3229 72.3527 11.169 71.1504 11.169C66.9536 11.169 66.0866 12.7078 66.0866 15.0195C66.0866 17.5603 66.5784 18.4155 69.7952 19.176C71.9155 19.6713 71.9155 20.0383 71.9155 20.6485C71.9155 21.4497 71.8426 21.7274 70.4583 21.7274C69.338 21.7274 68.0447 21.5594 66.9063 21.264C66.7787 21.234 66.6512 21.2534 66.5419 21.3171C66.4327 21.3861 66.3543 21.494 66.3307 21.6178L65.9663 23.5368C65.9299 23.7579 66.0574 23.9755 66.2815 24.0445C67.5201 24.4336 69.3016 24.6989 70.6113 24.6989C74.6733 24.6989 75.5112 23.0363 75.5112 20.5601C75.5112 17.8185 75.0048 17.3056 71.3763 16.3735L71.3708 16.3912V16.4009ZM34.0202 7.1098C33.9601 6.92232 33.7834 6.79497 33.5794 6.79497H29.2651C29.0647 6.79497 28.8826 6.92144 28.8225 7.10715L23.3788 23.8561C23.3369 23.9887 23.3606 24.1391 23.448 24.254C23.5354 24.369 23.6739 24.4371 23.8214 24.4371H26.7905C26.9964 24.4371 27.1767 24.3045 27.235 24.1187L30.9846 11.7907C30.9846 11.7907 31.0848 11.4812 31.4218 11.4812C31.7679 11.4812 31.859 11.7996 31.859 11.7996L33.5985 17.6452H31.267C31.0666 17.6452 30.8844 17.7805 30.8298 17.9724L30.1558 20.2895C30.1194 20.4221 30.1558 20.5724 30.2287 20.6786C30.3198 20.7909 30.4655 20.8554 30.6112 20.8554H34.5913L35.6386 24.1214C35.6969 24.3071 35.8754 24.4345 36.0758 24.4345H39.0449C39.1906 24.4345 39.3327 24.3637 39.4202 24.2487C39.5112 24.132 39.5367 23.9834 39.493 23.8472L34.0439 7.07974L34.0257 7.10804L34.0202 7.1098ZM90.7611 11.4379H88.0288C87.7738 11.4379 87.568 11.6386 87.568 11.8862V24.0197C87.568 24.2673 87.7756 24.4725 88.0306 24.4725H90.7629C91.018 24.4725 91.2247 24.2717 91.2247 24.0215V11.8907C91.2247 11.643 91.0243 11.4458 90.7693 11.4458L90.7602 11.4388L90.7611 11.4379ZM52.017 6.46776H49.2847C49.0297 6.46776 48.8239 6.66851 48.8239 6.91613V24.0197C48.8239 24.2673 49.0315 24.4725 49.2865 24.4725H52.0188C52.2738 24.4725 52.4797 24.2717 52.4797 24.0215V6.92055C52.4797 6.67293 52.2793 6.47572 52.0243 6.47572L52.017 6.46864V6.46776ZM113.439 11.177C111.996 11.177 110.024 11.6616 108.357 12.4222L108.157 11.7677C108.102 11.5732 107.92 11.4449 107.715 11.4449H105.693C105.438 11.4449 105.229 11.6457 105.229 11.8933V24.0268C105.229 24.2744 105.429 24.4778 105.684 24.4778H108.416C108.671 24.4778 108.881 24.2779 108.881 24.0268V15.6253C109.865 15.1389 111.249 14.6348 112.071 14.6348C112.687 14.6348 112.915 14.8595 112.915 15.4573V24.0179C112.915 24.2691 113.124 24.4689 113.379 24.4689H116.111C116.366 24.4689 116.572 24.2691 116.572 24.0179V15.1097C116.572 12.5053 115.516 11.1832 113.437 11.1832H113.436L113.439 11.177ZM10.1672 18.3907C10.0943 18.32 9.99048 18.2448 9.81197 18.2448C9.58428 18.2448 9.45131 18.3969 9.4003 18.4712C8.12523 20.3637 7.46947 22.1502 7.3784 23.9454C7.37567 24.0781 7.42667 24.2107 7.51957 24.308C7.61064 24.4141 7.74726 24.4672 7.88387 24.4672H10.9113C11.1754 24.4672 11.394 24.2726 11.4122 24.025C11.4851 23.1583 11.7583 22.2916 12.2683 21.3896C12.4414 21.0712 12.3047 20.7794 12.2046 20.6529C11.7036 20.0162 11.0907 19.3441 10.1799 18.419L10.1763 18.4013L10.1672 18.3907ZM60.8761 19.6819V21.2446C60.4298 21.4922 59.6101 21.8282 58.6173 21.8282C57.7703 21.8282 57.5062 21.5806 57.5062 20.7493C57.5062 19.9534 57.6701 19.7022 58.672 19.7022H60.8761V19.6828V19.6819ZM99.693 19.6819V21.2446C99.2376 21.4922 98.418 21.8282 97.4343 21.8282C96.5873 21.8282 96.3232 21.5806 96.3232 20.7493C96.3232 19.9534 96.4871 19.7022 97.489 19.7022H99.693V19.6828V19.6819ZM46.9686 21.8795C46.9504 21.7522 46.8775 21.6408 46.7682 21.57C46.659 21.4993 46.5296 21.478 46.4021 21.5081C45.9103 21.6248 45.4549 21.6885 45.0906 21.6885C44.4166 21.6885 44.107 21.4055 44.107 20.7688V14.3395H46.7573C47.0123 14.3395 47.22 14.1361 47.22 13.8884V11.8809C47.22 11.6333 47.0105 11.4299 46.7555 11.4299H44.1143V8.34437C44.1143 8.21172 44.0523 8.09056 43.9503 8.00389C43.8501 7.91811 43.7135 7.88008 43.586 7.89777L40.8537 8.2692C40.6242 8.29839 40.453 8.48764 40.453 8.71138V11.4352H38.962C38.707 11.4352 38.4994 11.636 38.4994 11.8836V13.8999C38.4994 14.1476 38.718 14.3527 38.973 14.3527H40.4593V21.1888C40.4593 23.5386 41.729 24.7263 44.2354 24.7263C44.9458 24.7263 46.1589 24.5671 46.9495 24.3018C47.159 24.2311 47.2883 24.025 47.2537 23.8066L46.9577 21.8875L46.9668 21.8742L46.9686 21.8795ZM59.0445 11.1832C57.6601 11.1832 55.977 11.3954 54.7548 11.7226C54.518 11.7845 54.3723 12.0012 54.4087 12.2267L54.7238 14.1546C54.742 14.2723 54.8149 14.3784 54.9151 14.4491C55.0171 14.5199 55.1446 14.5376 55.2685 14.5199C56.4033 14.3076 57.5763 14.1838 58.5691 14.1838C60.5363 14.1838 60.8533 14.5906 60.8533 15.8818V17.0138H57.9388C55.1446 17.0138 53.9497 18.1281 53.9497 20.7635C53.9497 23.2751 55.2612 24.7077 57.5381 24.7077C58.8623 24.7077 60.1848 24.354 61.2959 23.6996L61.4143 24.1117C61.469 24.3062 61.6511 24.4389 61.8606 24.4389H64.0792C64.3343 24.4389 64.5401 24.2355 64.5401 23.9879V15.9225C64.5401 12.4558 63.0555 11.1646 59.0573 11.1646L59.0409 11.1734L59.0445 11.1832ZM97.8551 11.1832C96.4707 11.1832 94.7949 11.3954 93.5745 11.7226C93.3468 11.7845 93.2011 12.0012 93.2421 12.2267L93.5608 14.1546C93.579 14.2723 93.6519 14.3784 93.7521 14.4491C93.8559 14.5199 93.9834 14.5376 94.1073 14.5199C95.2366 14.3076 96.4024 14.1838 97.4043 14.1838C99.3715 14.1838 99.6812 14.5906 99.6812 15.8818V17.0138H96.7667C93.9616 17.0138 92.7666 18.1281 92.7666 20.7635C92.7666 23.2751 94.0754 24.7077 96.3551 24.7077C97.6784 24.7077 98.9963 24.354 100.107 23.6996L100.226 24.1117C100.28 24.3062 100.463 24.4389 100.672 24.4389H102.876C103.131 24.4389 103.341 24.2355 103.341 23.9879V15.9225C103.341 12.4558 101.856 11.1646 97.8578 11.1646L97.8624 11.1734L97.8551 11.1832ZM22.4498 6.54912C22.3587 6.48279 22.254 6.44919 22.1465 6.44919C22.0737 6.44919 22.019 6.4598 21.9644 6.48102C20.8714 6.88252 19.7785 7.18851 18.7767 7.41314C18.5763 7.4662 18.3978 7.6077 18.3395 7.78457C17.6109 9.73017 15.7347 11.5873 13.7857 13.5152C13.7128 13.586 13.6035 13.6921 13.4213 13.6921C13.2392 13.6921 13.1299 13.6037 13.057 13.5276C11.0898 11.5909 9.23181 9.75139 8.5032 7.8058C8.43034 7.62893 8.2664 7.48743 8.06603 7.43437C7.06418 7.20443 5.95304 6.8949 4.87834 6.49694C4.82369 6.47925 4.75447 6.47041 4.69618 6.47041C4.58689 6.47041 4.48124 6.50578 4.39198 6.57034C4.25355 6.66762 4.18251 6.83565 4.1989 6.99484C4.36284 8.60968 5.0277 10.1874 6.2117 11.8411C7.33195 13.3976 8.78007 14.8391 10.1918 16.2311C12.7783 18.7958 15.2283 21.2189 15.4451 24.0312C15.4633 24.2823 15.6819 24.4787 15.9405 24.4787H18.9825C19.1191 24.4787 19.2521 24.4256 19.3468 24.3283C19.4415 24.2311 19.4925 24.1019 19.4834 23.9693C19.3869 22.0918 18.6583 20.2107 17.2557 18.2183C16.9642 17.8026 16.6546 17.3958 16.324 16.9979C16.191 16.8387 16.2475 16.6353 16.3495 16.5362L16.6591 16.232C18.0681 14.8436 19.5189 13.402 20.6392 11.8456C21.8232 10.1962 22.4789 8.62649 22.6474 7.01252C22.6657 6.84892 22.5892 6.67647 22.4544 6.57653L22.4635 6.56327L22.4498 6.54912ZM13.4332 7.99947C14.3868 7.99947 14.9405 7.94022 15.1336 7.94022C15.3522 7.94022 15.589 8.11709 15.589 8.3824C15.589 8.45315 15.5708 8.50621 15.5525 8.55927C15.425 8.88472 14.8421 10.0662 13.7674 11.0797C13.6399 11.1929 13.5124 11.2141 13.4213 11.2141C13.3303 11.2141 13.1846 11.1929 13.0625 11.0797C11.9878 10.0662 11.4122 8.88649 11.2865 8.55574C11.2683 8.50267 11.2501 8.44961 11.2501 8.37002C11.2501 8.11356 11.4741 7.919 11.7091 7.919C11.904 7.919 12.4559 7.97206 13.4104 7.97206H13.4141L13.4323 7.98975L13.4332 7.99947ZM90.7593 6.47218H88.0343C87.7793 6.47218 87.5716 6.66674 87.5716 6.91436V9.24908C87.5716 9.4967 87.7793 9.69833 88.0343 9.69833H90.7666C91.0216 9.69833 91.2283 9.50377 91.2283 9.25615V6.90286C91.2283 6.65524 91.0216 6.45626 90.7666 6.45626L90.7593 6.47749V6.47218ZM26.7395 0.902466C26.6184 0.743281 26.4299 0.654845 26.2295 0.654845C26.1266 0.654845 26.0246 0.67607 25.938 0.725594C22.2039 2.70657 17.8805 3.75542 13.4286 3.75719C8.97862 3.75719 4.65429 2.70657 0.923777 0.723825C0.8327 0.670763 0.732515 0.653076 0.632331 0.653076C0.431962 0.653076 0.2407 0.741512 0.1223 0.900698C-0.0543889 1.11294 -0.0598536 1.50206 0.2407 1.732C2.10778 3.07623 4.16794 4.13746 6.36107 4.86264C8.63799 5.6055 11.0133 5.99462 13.4286 5.99462C15.8458 5.99462 18.2229 5.6055 20.4962 4.86264C22.6912 4.13746 24.7513 3.07623 26.622 1.732C26.9226 1.50206 26.9135 1.11294 26.7404 0.88301V0.902466H26.7395Z" fill="#5982E7"/>
</svg>
