<svg width="117" height="29" viewBox="0 0 117 29" fill="none" xmlns="http://www.w3.org/2000/svg">
<path fill-rule="evenodd" clip-rule="evenodd" d="M105.505 17.6368C105.505 15.3331 104.535 12.6667 101.517 8.94974L94.2401 0H84.1087L89.8766 6.27897C90.8484 7.32605 92.0862 8.26702 92.0862 8.26702C90.6836 7.48259 88.9076 7.16864 87.505 7.16864C84.1643 7.16864 80.7689 7.8496 77.7507 9.47152C74.5174 11.1978 72.3589 14.0764 72.3589 17.8977C72.3589 20.8276 73.7087 23.0783 75.4327 24.8046C79.3126 28.5746 86.3738 28.9399 88.9613 28.9399C92.7884 28.9399 98.7721 28.1015 102.166 25.1194C104.162 23.3401 105.508 20.8807 105.508 17.6377L105.505 17.6368ZM116.661 7.74524H107.876V28.2598H116.661V7.74524ZM44.4402 28.2598L25.0363 0H14.1498L17.1581 3.45343L0.0830078 28.2598H9.89199L12.8183 23.6027H31.3197L34.307 28.258H44.4402V28.2598ZM70.1485 19.6771V7.74524H61.6346V16.9037C61.6346 19.5214 61.5253 20.2519 61.3641 20.932C60.7721 22.8157 58.7229 23.6523 56.619 23.6523C53.7091 23.6523 52.3611 22.553 51.8238 20.8258C51.6599 20.251 51.6079 19.6249 51.5542 18.9952C51.4996 18.316 51.5542 17.5829 51.5542 16.7976V7.74524H42.931V19.7283C42.931 22.3991 43.8464 24.3863 45.3555 25.7482C47.9421 28.2067 52.3083 28.9407 56.3512 28.9407C61.2566 28.9407 65.0309 28.2598 67.7249 25.6951C69.1275 24.3863 70.1512 22.66 70.1512 19.6771H70.1485ZM97.0981 17.8977C97.0981 20.0423 95.6427 21.6651 93.8102 22.5548C92.302 23.3401 90.5224 23.5488 88.9586 23.5488C87.3957 23.5488 85.5632 23.2366 84.0541 22.5026C82.2216 21.6138 80.8209 19.8866 80.8209 18.0012C80.8209 15.7523 82.5987 13.9729 84.7007 13.0824C85.994 12.5058 87.5578 12.2971 88.7965 12.2971C89.9823 12.2971 91.7082 12.4536 93.0543 12.978C95.4806 13.9729 97.0981 15.8557 97.0981 17.8977ZM27.8997 18.0879H16.1736L22.0171 8.726L27.9006 18.0879H27.8997Z" fill="#D6DAE5"/>
</svg>
