<svg width="67" height="68" viewBox="0 0 67 68" fill="none" xmlns="http://www.w3.org/2000/svg">
<path d="M2 33.625C2 16.159 16.2412 2 33.8085 2C37.0463 2 40.1712 2.48098 43.1147 3.375" stroke="white" stroke-width="4" stroke-linecap="round" stroke-linejoin="round"/>
<path fill-rule="evenodd" clip-rule="evenodd" d="M26.963 40.4307C30.7438 44.1895 36.8732 44.1895 40.6539 40.4307C44.4347 36.6719 60.0851 10.2499 58.7018 8.87494C57.319 7.49994 30.7438 23.0602 26.963 26.819C23.1823 30.5778 23.1823 36.6719 26.963 40.4307ZM33.8082 36.3751C35.3356 36.3751 36.5739 35.1439 36.5739 33.6251C36.5739 32.1063 35.3356 30.8751 33.8082 30.8751C32.2804 30.8751 31.0421 32.1063 31.0421 33.6251C31.0421 35.1439 32.2804 36.3751 33.8082 36.3751Z" fill="white"/>
<ellipse cx="6.14877" cy="50.125" rx="2.76596" ry="2.75" fill="white"/>
<ellipse cx="17.2127" cy="61.125" rx="2.76596" ry="2.75" fill="white"/>
<ellipse cx="33.8084" cy="65.25" rx="2.76596" ry="2.75" fill="white"/>
<ellipse cx="50.4041" cy="61.125" rx="2.76596" ry="2.75" fill="white"/>
<ellipse cx="60.0853" cy="50.125" rx="2.76596" ry="2.75" fill="white"/>
<ellipse cx="64.2342" cy="33.625" rx="2.76596" ry="2.75" fill="white"/>
</svg>
