<svg xmlns="http://www.w3.org/2000/svg" xmlns:xlink="http://www.w3.org/1999/xlink"><defs><symbol viewBox="0 0 22 20" fill="none" id="about-chats">
<path d="M2 2V6.94956V13.5H4.28115L5.5 17L9 13.5H13.7018H19.7544V7.96774V2H17H12.5H2Z" stroke="#4074F8" stroke-width="2.5" />
</symbol><symbol viewBox="0 0 21 19" fill="none" id="about-events">
<path d="M2 11.9677V17.5H4.28115H9H13.7018H19.2544V11.9677M6.75439 5L10.7544 2M14.7544 5L10.7544 2M10.7544 2V12.5" stroke="#4074F8" stroke-width="2.5" />
</symbol><symbol viewBox="0 0 28 18" fill="none" id="about-files">
<path d="M19.7544 16H12.0877H9.19945H2V5.94956V2H12.0877L13.7018 5.16129H19.7544V6.96774M19.7544 16L25 6.96774H19.7544M19.7544 16V6.96774" stroke="#4074F8" stroke-width="2.5" />
</symbol><symbol viewBox="0 0 18 21" fill="none" id="about-overview">
<path d="M2 7.87273V19H6.42105L9 17L11.5789 19H16V7.87273L9 2L2 7.87273Z" stroke="#4074F8" stroke-width="2.5" />
</symbol><symbol viewBox="0 0 9 17" id="facebook">
<path d="M5.65597 17V9.24548H8.22501L8.60969 6.2234H5.65597V4.294C5.65597 3.41904 5.89578 2.82278 7.13417 2.82278L8.71368 2.82208V0.119112C8.44051 0.0822826 7.5029 -1.65981e-08 6.41206 -1.65981e-08C4.13475 -1.65981e-08 2.57564 1.40836 2.57564 3.9947V6.2234H-2.3404e-08V9.24548H2.57564V17H5.65597Z" />
</symbol><symbol viewBox="0 0 26 26" id="logo">
<circle cx="13" cy="13" r="13" fill="#5E81FE" />
</symbol><symbol viewBox="0 0 17 14" id="medium">
<path d="M17.0004 2.10651H16.3474C16.105 2.10651 15.7621 2.45072 15.7621 2.67109V10.6583C15.7621 10.8789 16.105 11.1796 16.3474 11.1796H17.0004V13.0755H11.0842V11.1796H12.3225V2.78361H12.2618L9.37024 13.0755H7.13153L4.27725 2.78361H4.20502V11.1796H5.44328V13.0755H0.490234V11.1796H1.12447C1.38566 11.1796 1.72849 10.8789 1.72849 10.6583V2.67109C1.72849 2.45072 1.38566 2.10651 1.12447 2.10651H0.490234V0.210635H6.68379L8.71725 7.65872H8.77319L10.8255 0.210635H17.0004V2.10651Z" />
</symbol><symbol viewBox="0 0 53 53" id="menu">
<g>
	<g>
		<path d="M2,13.5h49c1.104,0,2-0.896,2-2s-0.896-2-2-2H2c-1.104,0-2,0.896-2,2S0.896,13.5,2,13.5z" />
		<path d="M2,28.5h49c1.104,0,2-0.896,2-2s-0.896-2-2-2H2c-1.104,0-2,0.896-2,2S0.896,28.5,2,28.5z" />
		<path d="M2,43.5h49c1.104,0,2-0.896,2-2s-0.896-2-2-2H2c-1.104,0-2,0.896-2,2S0.896,43.5,2,43.5z" />
	</g>
</g>
<g>
</g>
<g>
</g>
<g>
</g>
<g>
</g>
<g>
</g>
<g>
</g>
<g>
</g>
<g>
</g>
<g>
</g>
<g>
</g>
<g>
</g>
<g>
</g>
<g>
</g>
<g>
</g>
<g>
</g>
</symbol><symbol viewBox="0 0 314.068 314.068" id="play-button">
<g>
	<g id="play-button__x33_56._Play">
		<g>
			<path fill="#5E81FF" d="M293.002,78.53C249.646,3.435,153.618-22.296,78.529,21.068C3.434,64.418-22.298,160.442,21.066,235.534
				c43.35,75.095,139.375,100.83,214.465,57.47C310.627,249.639,336.371,153.62,293.002,78.53z M219.834,265.801
				c-60.067,34.692-136.894,14.106-171.576-45.973C13.568,159.761,34.161,82.935,94.23,48.26
				c60.071-34.69,136.894-14.106,171.578,45.971C300.493,154.307,279.906,231.117,219.834,265.801z M213.555,150.652l-82.214-47.949
				c-7.492-4.374-13.535-0.877-13.493,7.789l0.421,95.174c0.038,8.664,6.155,12.191,13.669,7.851l81.585-47.103
				C221.029,162.082,221.045,155.026,213.555,150.652z" />
		</g>
	</g>
</g>
</symbol><symbol viewBox="0 0 67 68" fill="none" id="stat-speedometer">
<path d="M2 33.625C2 16.159 16.2412 2 33.8085 2C37.0463 2 40.1712 2.48098 43.1147 3.375" stroke="white" stroke-width="4" stroke-linecap="round" stroke-linejoin="round" />
<path fill-rule="evenodd" clip-rule="evenodd" d="M26.963 40.4306C30.7438 44.1894 36.8732 44.1894 40.6539 40.4306C44.4347 36.6718 60.0851 10.2498 58.7018 8.87482C57.319 7.49982 30.7438 23.0601 26.963 26.8189C23.1823 30.5777 23.1823 36.6718 26.963 40.4306ZM33.8082 36.3749C35.3356 36.3749 36.5739 35.1437 36.5739 33.6249C36.5739 32.1061 35.3356 30.8749 33.8082 30.8749C32.2804 30.8749 31.0421 32.1061 31.0421 33.6249C31.0421 35.1437 32.2804 36.3749 33.8082 36.3749Z" fill="white" />
<ellipse cx="6.14877" cy="50.125" rx="2.76596" ry="2.75" fill="white" />
<ellipse cx="17.2127" cy="61.125" rx="2.76596" ry="2.75" fill="white" />
<ellipse cx="33.8084" cy="65.25" rx="2.76596" ry="2.75" fill="white" />
<ellipse cx="50.4041" cy="61.125" rx="2.76596" ry="2.75" fill="white" />
<ellipse cx="60.0853" cy="50.125" rx="2.76596" ry="2.75" fill="white" />
<ellipse cx="64.2342" cy="33.625" rx="2.76596" ry="2.75" fill="white" />
</symbol><symbol viewBox="0 0 75 66" fill="none" id="stat-users">
<ellipse cx="28.6252" cy="17.5" rx="15.6369" ry="15.5" stroke="#5E80FF" stroke-width="4" stroke-linecap="round" stroke-linejoin="round" />
<path d="M55.2501 64.0001C55.2501 49.6556 43.3296 38.0271 28.625 38.0271C13.9204 38.0271 2 49.6556 2 64.0001" stroke="#5E80FF" stroke-width="4" stroke-linecap="round" stroke-linejoin="round" />
<ellipse cx="62.0119" cy="20.223" rx="6.45334" ry="6.49324" stroke="#5E80FF" stroke-width="3" stroke-linecap="round" stroke-linejoin="round" />
<path d="M73.0001 39.7028C73.0001 33.6937 68.0806 28.8223 62.012 28.8223C55.9435 28.8223 51.0239 33.6937 51.0239 39.7028" stroke="#5E80FF" stroke-width="3" stroke-linecap="round" stroke-linejoin="round" />
</symbol><symbol viewBox="0 0 15 13" id="telegram">
<path d="M5.81948 12.0232C5.38166 12.0232 5.45606 11.8651 5.30506 11.4664L4.01758 7.41344L13.928 1.78983" fill="#fff" />
<path d="M5.81934 12.0232C6.15719 12.0232 6.30647 11.8754 6.49505 11.7L8.29695 10.0241L6.0493 8.72772" />
<path d="M6.04921 8.72806L11.4955 12.5768C12.1169 12.9048 12.5655 12.735 12.7203 12.0249L14.9372 2.03246C15.1642 1.16206 14.5903 0.76729 13.9958 1.02547L0.97816 5.82666C0.0895861 6.16756 0.0947663 6.64173 0.816192 6.85301L4.15681 7.85032L11.8907 3.18335C12.2558 2.97158 12.5909 3.08543 12.3158 3.31891" />
</symbol><symbol viewBox="0 0 18 14" id="twitter">
<path fill-rule="evenodd" clip-rule="evenodd" d="M17.0325 1.84041C16.425 2.11761 15.7724 2.30417 15.0874 2.38898C15.7865 1.95807 16.3236 1.27594 16.5764 0.46342C15.922 0.862259 15.1971 1.15191 14.4255 1.308C13.8079 0.631966 12.9273 0.210602 11.9532 0.210602C10.0829 0.210602 8.56607 1.76885 8.56607 3.69017C8.56607 3.96313 8.59573 4.22867 8.65378 4.48334C5.83828 4.33759 3.34216 2.95159 1.67179 0.847419C1.38029 1.36154 1.21325 1.95887 1.21325 2.59648C1.21325 3.80359 1.81123 4.86853 2.7198 5.49303C2.16516 5.47448 1.64252 5.31812 1.18591 5.05709V5.10081C1.18591 6.7876 2.35451 8.19347 3.90234 8.51347C3.61857 8.59297 3.31933 8.63537 3.01157 8.63537C2.79332 8.63537 2.58076 8.61417 2.37438 8.57309C2.80519 9.95591 4.05635 10.9619 5.53839 10.99C4.37907 11.9228 2.91844 12.4793 1.33089 12.4793C1.05744 12.4793 0.788374 12.4634 0.523438 12.4308C2.02225 13.4183 3.80302 13.9944 5.71575 13.9944C11.9457 13.9944 15.3529 8.69155 15.3529 4.09365C15.3529 3.94259 15.3495 3.79286 15.3431 3.64313C16.005 3.15286 16.5795 2.53937 17.0336 1.84107" />
</symbol></defs></svg>