<svg xmlns="http://www.w3.org/2000/svg" xmlns:xlink="http://www.w3.org/1999/xlink"><defs><symbol viewBox="0 0 9 17" fill="none" id="facebook">
<path d="M5.65597 17V9.24548H8.22501L8.60969 6.2234H5.65597V4.294C5.65597 3.41904 5.89578 2.82278 7.13417 2.82278L8.71368 2.82208V0.119112C8.44051 0.0822826 7.5029 -1.65981e-08 6.41206 -1.65981e-08C4.13475 -1.65981e-08 2.57564 1.40836 2.57564 3.9947V6.2234H-2.3404e-08V9.24548H2.57564V17H5.65597Z" fill="#B6BAC7" />
</symbol><symbol viewBox="0 0 26 26" fill="none" id="logo">
<circle cx="13" cy="13" r="13" fill="#5E81FE" />
</symbol><symbol viewBox="0 0 17 14" fill="none" id="medium">
<path d="M17.0004 2.10651H16.3474C16.105 2.10651 15.7621 2.45072 15.7621 2.67109V10.6583C15.7621 10.8789 16.105 11.1796 16.3474 11.1796H17.0004V13.0755H11.0842V11.1796H12.3225V2.78361H12.2618L9.37024 13.0755H7.13153L4.27725 2.78361H4.20502V11.1796H5.44328V13.0755H0.490234V11.1796H1.12447C1.38566 11.1796 1.72849 10.8789 1.72849 10.6583V2.67109C1.72849 2.45072 1.38566 2.10651 1.12447 2.10651H0.490234V0.210635H6.68379L8.71725 7.65872H8.77319L10.8255 0.210635H17.0004V2.10651Z" fill="#757E9A" />
</symbol><symbol viewBox="0 0 152 152" fill="none" id="play-button">
<g filter="url(#play-button_filter0_d)">
<circle cx="76" cy="66" r="26" fill="white" />
</g>
<path d="M81.2308 65.1767C82.2564 65.7649 82.2564 67.2351 81.2308 67.8233L74.3077 71.793C73.2821 72.3811 72 71.646 72 70.4698V62.5302C72 61.354 73.2821 60.6189 74.3077 61.207L81.2308 65.1767Z" fill="#5E81FF" />
<defs>
<filter id="play-button_filter0_d" x="0" y="0" width="152" height="152" filterUnits="userSpaceOnUse" color-interpolation-filters="sRGB">
<feFlood flood-opacity="0" result="BackgroundImageFix"></feFlood>
<feColorMatrix in="SourceAlpha" type="matrix" values="0 0 0 0 0 0 0 0 0 0 0 0 0 0 0 0 0 0 127 0"></feColorMatrix>
<feOffset dy="10"></feOffset>
<feGaussianBlur stdDeviation="25"></feGaussianBlur>
<feColorMatrix type="matrix" values="0 0 0 0 0.787409 0 0 0 0 0.817846 0 0 0 0 0.906114 0 0 0 0.6 0"></feColorMatrix>
<feBlend mode="normal" in2="BackgroundImageFix" result="effect1_dropShadow"></feBlend>
<feBlend mode="normal" in="SourceGraphic" in2="effect1_dropShadow" result="shape"></feBlend>
</filter>
</defs>
</symbol><symbol viewBox="0 0 15 13" fill="none" id="telegram">
<path d="M5.81948 12.0232C5.38166 12.0232 5.45606 11.8651 5.30506 11.4664L4.01758 7.41344L13.928 1.78983" fill="#9399AB" />
<path d="M5.81934 12.0232C6.15719 12.0232 6.30647 11.8754 6.49505 11.7L8.29695 10.0241L6.0493 8.72772" fill="#70788E" />
<path d="M6.04921 8.72806L11.4955 12.5768C12.1169 12.9048 12.5655 12.735 12.7203 12.0249L14.9372 2.03246C15.1642 1.16206 14.5903 0.76729 13.9958 1.02547L0.97816 5.82666C0.0895861 6.16756 0.0947663 6.64173 0.816192 6.85301L4.15681 7.85032L11.8907 3.18335C12.2558 2.97158 12.5909 3.08543 12.3158 3.31891" fill="#B6BAC7" />
</symbol><symbol viewBox="0 0 18 14" fill="none" id="twitter">
<path fill-rule="evenodd" clip-rule="evenodd" d="M17.0325 1.84041C16.425 2.11761 15.7724 2.30417 15.0874 2.38898C15.7865 1.95807 16.3236 1.27594 16.5764 0.46342C15.922 0.862259 15.1971 1.15191 14.4255 1.308C13.8079 0.631966 12.9273 0.210602 11.9532 0.210602C10.0829 0.210602 8.56607 1.76885 8.56607 3.69017C8.56607 3.96313 8.59573 4.22867 8.65378 4.48334C5.83828 4.33759 3.34216 2.95159 1.67179 0.847419C1.38029 1.36154 1.21325 1.95887 1.21325 2.59648C1.21325 3.80359 1.81123 4.86853 2.7198 5.49303C2.16516 5.47448 1.64252 5.31812 1.18591 5.05709V5.10081C1.18591 6.7876 2.35451 8.19347 3.90234 8.51347C3.61857 8.59297 3.31933 8.63537 3.01157 8.63537C2.79332 8.63537 2.58076 8.61417 2.37438 8.57309C2.80519 9.95591 4.05635 10.9619 5.53839 10.99C4.37907 11.9228 2.91844 12.4793 1.33089 12.4793C1.05744 12.4793 0.788374 12.4634 0.523438 12.4308C2.02225 13.4183 3.80302 13.9944 5.71575 13.9944C11.9457 13.9944 15.3529 8.69155 15.3529 4.09365C15.3529 3.94259 15.3495 3.79286 15.3431 3.64313C16.005 3.15286 16.5795 2.53937 17.0336 1.84107" fill="#6188FF" />
</symbol></defs></svg>